<?xml version="1.0" standalone="no"?>
<!DOCTYPE svg PUBLIC "-//W3C//DTD SVG 20010904//EN"
 "http://www.w3.org/TR/2001/REC-SVG-20010904/DTD/svg10.dtd">
<svg version="1.0" xmlns="http://www.w3.org/2000/svg"
 width="540.000000pt" height="93.000000pt" viewBox="0 0 540.000000 93.000000"
 preserveAspectRatio="xMidYMid meet">

<g transform="translate(0.000000,93.000000) scale(0.100000,-0.100000)"
fill="#000000" stroke="none">
<path d="M2364 885 c-4 -8 -16 -15 -28 -15 -27 0 -76 -45 -76 -70 0 -10 8 -25
18 -32 22 -16 36 -101 36 -233 1 -72 -2 -90 -14 -90 -8 0 -23 23 -35 56 -11
31 -28 68 -37 82 -10 15 -18 30 -18 36 0 5 -15 26 -34 47 -29 32 -32 41 -23
61 22 49 -44 83 -166 86 -73 2 -89 -1 -114 -19 -18 -13 -29 -32 -31 -52 -3
-26 3 -34 42 -62 40 -27 46 -36 46 -66 0 -22 -6 -37 -15 -40 -17 -7 -55 -83
-55 -111 0 -10 17 -35 38 -55 47 -45 72 -89 55 -95 -7 -2 -10 -10 -7 -18 3 -7
1 -16 -5 -20 -6 -3 -11 0 -11 7 0 7 -9 0 -19 -16 -17 -25 -22 -89 -9 -101 1
-1 23 -5 48 -8 25 -3 64 -9 88 -13 37 -6 46 -3 67 16 28 26 31 50 11 83 -8 14
-14 53 -14 107 0 47 -2 92 -4 99 -2 8 2 15 8 18 13 4 74 -79 74 -100 0 -21 31
-58 56 -67 27 -11 33 -47 9 -57 -14 -5 -14 -8 2 -25 17 -19 17 -20 -1 -34 -18
-12 -18 -15 -4 -31 8 -10 18 -26 21 -35 5 -15 20 -18 94 -18 78 0 93 3 126 26
35 23 38 29 35 67 -2 34 -8 44 -29 54 -23 11 -27 21 -34 80 -13 124 -15 118
28 119 38 1 77 26 77 51 0 7 -13 37 -29 66 -16 28 -33 68 -36 88 l-7 37 63 32
63 32 18 -24 c48 -59 50 -118 8 -168 -40 -46 -40 -85 0 -99 l30 -10 0 -82 c0
-67 -3 -80 -14 -76 -9 4 -17 -2 -21 -14 -4 -10 -11 -19 -17 -19 -10 0 -8 -18
8 -99 l7 -34 79 7 c44 4 93 13 109 21 15 8 36 15 47 15 26 0 96 67 120 116 11
22 27 46 35 53 9 7 21 43 28 80 14 84 0 185 -35 239 -52 81 -186 183 -238 182
-13 -1 -37 -2 -55 -2 -18 -1 -34 -7 -37 -14 -3 -8 -15 -14 -26 -14 -13 0 -24
-10 -31 -27 l-10 -26 -37 35 c-20 19 -61 44 -91 54 -33 12 -56 26 -59 37 -4
16 -5 16 -17 1 -11 -16 -12 -16 -18 0 -8 20 -26 21 -33 1z m500 -251 c9 -3 16
-11 16 -17 0 -6 9 -21 21 -33 15 -16 23 -40 26 -86 7 -84 -9 -136 -54 -182
l-38 -38 -6 31 c-4 17 -4 65 -2 108 2 43 4 106 3 141 -1 78 3 88 34 76z"/>
<path d="M4177 823 c-24 -28 -21 -67 9 -102 31 -37 44 -80 44 -147 0 -44 -4
-53 -30 -72 -18 -14 -30 -32 -30 -45 0 -13 14 -36 30 -52 27 -26 30 -35 30
-94 0 -50 -4 -69 -20 -85 -10 -12 -22 -39 -25 -61 -6 -33 -3 -44 15 -60 48
-44 168 -60 216 -29 30 20 102 141 110 186 4 18 17 43 30 56 31 29 46 90 46
183 0 123 -39 210 -83 183 -6 -3 -31 13 -55 37 -24 24 -44 40 -44 35 0 -4 -12
2 -26 13 -15 12 -37 21 -49 21 -12 0 -34 9 -47 20 -39 30 -99 36 -121 13z
m229 -233 c6 0 21 -19 33 -41 20 -34 24 -57 25 -131 1 -55 -3 -91 -10 -96 -6
-4 -14 -17 -18 -29 -10 -31 -66 -77 -79 -64 -15 15 -26 161 -16 216 6 28 10
75 10 105 0 66 6 76 28 56 10 -9 22 -16 27 -16z"/>
<path d="M375 812 c-86 -53 -195 -191 -195 -246 0 -15 -13 -36 -34 -54 -34
-29 -56 -62 -56 -80 0 -6 19 -24 43 -41 35 -27 44 -40 54 -84 23 -101 34 -121
77 -141 50 -24 120 -25 165 -3 19 9 40 17 47 17 35 0 75 39 111 106 35 67 41
73 78 81 40 8 40 9 43 57 4 67 -5 71 -152 68 -131 -3 -156 -11 -156 -46 0 -26
60 -86 86 -86 11 0 14 -6 9 -22 -22 -71 -94 -90 -146 -39 -16 16 -29 35 -29
42 0 6 -10 27 -21 46 -17 28 -21 46 -17 97 4 73 32 124 95 174 38 30 40 30 71
15 40 -19 58 -49 42 -67 -24 -30 87 -23 116 7 4 4 15 7 25 7 19 0 39 28 39 55
0 9 -12 18 -31 22 -21 4 -34 14 -40 32 -15 37 -38 55 -102 80 -70 26 -84 26
-122 3z"/>
<path d="M719 803 c-18 -48 -2 -98 41 -128 48 -33 56 -61 29 -98 -30 -41 -36
-94 -13 -111 11 -8 25 -43 35 -82 l17 -69 -39 -36 c-42 -40 -51 -79 -25 -115
13 -17 27 -19 123 -19 l108 0 3 44 c3 38 -1 48 -28 76 -18 19 -29 38 -26 44 9
14 43 14 51 1 5 -8 11 -7 21 1 12 10 10 14 -16 27 -29 14 -34 14 -60 -2 -33
-19 -47 -7 -30 25 7 11 9 32 6 45 -5 17 -2 24 8 24 8 0 18 -4 21 -10 3 -6 17
-10 30 -10 13 0 31 -3 40 -6 19 -8 48 -72 41 -91 -3 -7 -1 -13 4 -13 6 0 10
-5 10 -11 0 -6 9 -22 20 -36 11 -14 20 -33 20 -43 0 -9 10 -26 23 -38 19 -18
35 -22 89 -22 59 0 66 -2 76 -25 9 -20 19 -25 49 -25 50 0 143 25 161 44 19
19 8 46 -19 46 -18 0 -20 4 -15 38 3 20 8 60 12 87 8 61 18 75 54 75 36 0 58
-34 66 -104 6 -48 4 -56 -15 -68 -24 -15 -28 -38 -6 -38 8 0 15 -4 15 -10 0
-5 16 -10 35 -10 19 0 43 -5 53 -11 25 -16 147 -3 163 18 17 20 1 45 -38 58
-40 13 -63 34 -63 55 0 10 -6 23 -14 29 -13 11 -26 54 -42 133 -4 20 0 29 15
38 12 6 21 17 21 24 0 17 -30 51 -52 59 -21 7 -44 51 -53 98 -6 34 -5 36 24
42 32 7 55 36 46 59 -10 25 -64 49 -117 52 -29 2 -61 7 -70 11 -26 11 -121
-13 -166 -42 -72 -47 -76 -92 -11 -122 31 -14 34 -21 37 -63 3 -38 -1 -50 -22
-72 -33 -32 -33 -59 -1 -84 28 -23 31 -50 10 -95 -8 -18 -15 -52 -17 -77 -2
-33 -7 -46 -20 -48 -10 -2 -18 3 -18 10 0 8 -16 20 -35 27 -63 23 -125 118
-125 193 0 14 -9 37 -21 51 l-20 26 21 29 c33 45 19 104 -38 159 -24 24 -47
42 -50 39 -2 -3 -17 1 -33 9 -15 8 -37 15 -47 15 -10 0 -40 11 -66 25 -34 18
-63 25 -102 25 -50 0 -55 -2 -65 -27z m255 -151 c3 -5 3 -25 -1 -45 -5 -33 -9
-37 -36 -37 -24 0 -28 3 -19 12 7 7 12 24 12 39 0 31 31 52 44 31z m566 -108
c0 -8 -4 -12 -10 -9 -5 3 -10 13 -10 21 0 8 5 12 10 9 6 -3 10 -13 10 -21z"/>
<path d="M3678 819 c-9 -5 -24 -23 -32 -40 -14 -27 -14 -34 -1 -59 8 -16 23
-35 33 -42 41 -29 56 -100 33 -155 -11 -26 -10 -35 7 -66 13 -25 20 -59 21
-110 2 -66 -1 -76 -24 -101 -42 -45 -31 -79 41 -121 35 -20 54 -25 77 -21 18
3 41 7 52 9 45 6 82 22 124 51 57 41 64 59 101 301 19 126 19 125 4 125 -8 0
-14 4 -14 10 0 5 -6 7 -14 4 -10 -4 -26 13 -49 49 -42 65 -87 102 -153 124
-27 8 -56 22 -65 29 -20 17 -118 26 -141 13z m239 -203 c76 -86 80 -251 8
-329 -19 -20 -38 -37 -44 -37 -14 0 -22 71 -19 185 2 55 -1 128 -6 163 -11 78
4 83 61 18z"/>
<path d="M3280 810 c-14 -4 -46 -14 -73 -20 -36 -10 -49 -18 -53 -36 -3 -12
-12 -25 -20 -28 -22 -8 -17 -22 21 -57 29 -28 35 -40 35 -76 0 -30 -5 -45 -18
-52 -14 -8 -17 -20 -15 -68 7 -145 -2 -223 -25 -231 -8 -2 -16 5 -19 16 -4 18
-8 16 -40 -19 -75 -83 -56 -156 43 -160 55 -2 152 22 164 41 4 7 8 49 8 93 1
111 18 161 55 165 58 7 93 -68 63 -130 -21 -40 -21 -102 -1 -118 16 -14 39
-17 134 -23 41 -2 54 0 59 12 3 9 19 27 35 41 25 22 29 30 22 58 -7 36 -15 43
-58 51 -25 5 -32 14 -47 62 -17 56 -17 56 7 83 28 33 30 62 3 76 -18 10 -35
35 -82 124 -9 18 -23 38 -32 45 -20 17 -21 41 -2 41 21 0 26 25 9 49 -22 32
-89 71 -120 70 -16 0 -39 -4 -53 -9z m87 -260 c11 -43 2 -60 -22 -40 -23 19
-19 80 5 80 3 0 11 -18 17 -40z"/>
<path d="M4674 798 c-20 -9 -21 -16 -17 -71 4 -65 23 -97 54 -97 20 0 53 -42
63 -80 4 -14 19 -46 32 -72 20 -39 23 -51 14 -68 -9 -17 -8 -32 4 -67 9 -26
16 -65 16 -88 0 -37 -4 -45 -35 -66 -29 -20 -35 -30 -35 -61 0 -32 4 -39 26
-44 14 -4 37 -1 50 5 34 15 69 14 83 -3 21 -25 91 -25 149 2 29 13 56 31 59
40 9 22 -26 44 -59 37 -24 -6 -29 -2 -38 20 -5 14 -10 69 -10 120 0 89 1 95
25 111 13 9 27 24 30 35 4 10 26 44 51 74 36 44 54 57 89 66 58 15 77 37 73
85 -3 33 -8 40 -48 61 -86 45 -190 11 -190 -62 0 -27 -100 -185 -114 -181 -9
2 -59 84 -72 116 -3 8 -9 22 -14 31 -5 9 -6 26 -3 38 3 12 -2 39 -12 60 -26
58 -112 88 -171 59z"/>
</g>
</svg>
